<?xml version="1.0" encoding="UTF-8" standalone="no"?>
<svg
   version="1.1"
   viewBox="0 0 1910.4592 1984.8025"
   width="477.61481"
   height="496.20062"
   id="svg2"
   xmlns:xlink="http://www.w3.org/1999/xlink"
   xmlns="http://www.w3.org/2000/svg"
   xmlns:svg="http://www.w3.org/2000/svg">
  <defs
     id="defs2">
    <linearGradient
       id="swatch2">
      <stop
         style="stop-color:#000000;stop-opacity:1;"
         offset="0"
         id="stop2" />
    </linearGradient>
    <linearGradient
       xlink:href="#swatch2"
       id="linearGradient2"
       x1="-680"
       y1="710"
       x2="684"
       y2="710"
       gradientUnits="userSpaceOnUse"
       gradientTransform="matrix(1.3275591,0,0,1.3275591,952.57453,49.834253)" />
  </defs>
  <path
     d="m 952.57453,49.834252 h 6.63772 l 18.58582,15.93071 15.93075,14.603151 10.62048,9.292914 22.5685,21.240953 13.2755,11.94803 19.9134,18.58582 13.2757,11.94803 47.7921,43.80946 10.6204,9.29292 19.9134,18.58582 10.6205,9.29291 21.241,19.9134 10.6204,9.2929 15.9307,14.60316 17.2582,15.93071 15.9308,14.60315 10.6204,9.29291 19.9134,18.58583 13.2757,11.94804 18.5858,17.25826 10.6204,9.29292 17.2583,15.93071 15.9308,14.60315 17.2582,15.9307 13.2756,11.94805 47.7921,43.80945 10.6205,9.29291 19.9133,18.58582 10.6206,9.29292 21.2409,19.91339 26.5512,23.89607 19.9134,18.58582 13.2756,11.94803 17.2582,15.93072 13.2757,11.94803 34.5165,31.86141 10.6204,9.29292 19.9134,18.58583 31.8615,29.2063 10.6204,9.29292 21.2409,19.91338 10.6206,9.29292 21.2409,19.91339 10.6204,9.29292 15.9308,14.60315 17.2583,15.9307 15.9307,14.60315 10.6204,9.29291 19.9134,18.58584 10.6205,9.29291 17.2582,15.93071 1.3276,2.65512 V 1881.866 l -7.9654,1.3275 h -71.6881 l -288.0803,3.9827 h -103.5497 l -42.4819,-2.6551 -39.8267,-3.9827 -35.8442,-6.6378 -31.8614,-7.9653 -43.8094,-14.6033 -29.2064,-11.9479 -19.9134,-9.2929 -21.2409,-10.6205 -25.2235,-13.2756 -23.8961,-14.6032 -19.9134,-13.2756 -18.5858,-13.2755 -14.6032,-10.6205 -22.5685,-18.5859 -13.27558,-11.9479 -14.60311,-11.9481 -2.65513,-1.3276 -11.9481,9.293 -18.58581,17.2582 -14.60312,11.948 -21.24095,15.9308 -35.84407,23.896 -19.91338,11.9481 -18.58582,10.6204 -30.53391,14.6032 -26.55118,11.948 -30.53386,11.9481 -37.17165,11.948 -42.4819,10.6204 -45.13701,7.9654 -37.17165,3.9827 -17.25828,1.3276 h -51.7748 l -6.6378,-6.6379 v -9.2928 l 5.31023,-3.9827 70.36065,-3.9827 33.18897,-3.9827 39.82678,-6.6379 42.48189,-10.6204 47.79213,-15.9307 21.24095,-7.9654 35.8441,-15.9306 33.18893,-17.2583 26.55122,-15.9307 19.91338,-13.2756 18.58581,-13.2756 18.58582,-14.6032 18.58582,-15.9307 15.93079,-14.6031 h 2.65513 l -1.32756,-5.3103 -11.9481,-11.948 -11.94798,-14.6032 -13.27567,-15.9307 -17.25825,-23.8961 -14.60311,-22.5685 -15.93069,-27.8786 -14.60323,-27.8788 -14.60311,-33.189 -17.25825,-46.4646 -11.94804,-41.1543 -9.29291,-43.8095 -5.31025,-38.4992 -2.65511,-33.1889 v -35.8442 l 2.65511,-31.8613 6.6378,-39.8268 6.6378,-26.5512 7.96535,-25.2237 7.96538,-21.2409 13.27555,-25.2236 7.9654,-13.2756 13.27555,-17.2583 7.9654,-9.2929 10.62042,-9.2929 13.27566,-9.2929 21.24095,-10.6205 19.91338,-6.6378 25.22354,-3.9827 h 18.58592 l 22.56838,3.9827 17.25838,6.6378 13.2755,6.6378 21.241,15.9307 14.6031,14.6031 13.2757,17.2583 11.948,19.9134 11.948,25.2237 9.2929,25.2236 9.2929,35.8441 5.3102,29.2063 3.9827,30.5338 1.3276,18.5858 v 51.7749 l -2.6552,33.1889 -6.6377,42.4819 -9.293,41.1544 -10.6204,38.4992 -15.9307,46.4646 -14.6032,35.844 -17.2582,35.8442 -15.9307,27.8787 -10.6205,15.9308 -15.9307,21.2408 -17.25828,19.9135 -7.96536,9.2929 13.27556,13.2755 14.60318,11.9481 18.5858,15.9307 14.6032,10.6205 18.5858,13.2756 22.5685,14.6031 19.9133,11.9481 23.8961,13.2755 31.8615,15.9307 42.4818,17.2583 45.137,14.6032 34.5166,7.9653 31.8614,5.3102 45.137,3.9827 19.9134,1.3276 h 153.9969 l 69.033,-1.3276 157.9796,-1.3275 h 78.326 l -1.3276,-978.41118 -10.6204,-10.62048 -2.6551,-1.32756 v -2.65511 l -5.3103,-2.65513 -19.9134,-18.58582 -10.6205,-9.29292 -21.241,-19.91339 -26.5511,-23.89607 -34.5166,-31.86141 -13.2755,-11.94804 -15.9307,-14.60315 -10.6205,-9.29291 -22.5686,-21.24095 -13.2755,-11.94803 -15.9307,-14.60315 -10.6205,-9.29292 -22.5685,-21.24095 -15.9307,-14.60314 -26.5512,-23.89607 -19.9134,-18.58582 -31.8614,-29.20631 -10.6205,-9.29292 -19.9134,-18.58582 -15.9307,-14.60315 -10.6204,-9.29291 -19.9134,-18.58583 -13.2756,-11.94804 -17.2583,-15.93071 -26.5512,-23.89606 -19.9134,-18.58584 -14.6031,-13.27558 -10.6205,-9.29292 -17.2583,-15.93071 -19.9134,-18.58582 -10.6204,-9.29292 -17.2582,-15.93071 -10.6206,-9.29292 -22.5685,-21.24094 -26.5512,-23.89607 -17.2582,-15.9307 -31.8614,-29.2063 -10.6205,-9.29292 -19.9134,-18.58583 -15.9307,-14.60315 -13.2755,-11.94803 -10.6206,-9.29292 -21.2409,-19.91338 -31.8614,-29.20631 -10.6205,-9.2929 -21.24094,-19.913393 -10.62042,-9.292919 -13.27566,-11.948033 -6.63772,2.655118 -21.24095,19.913384 -19.91338,18.585843 -14.60323,13.27558 -10.62042,9.29292 -17.25825,15.93071 -21.24095,19.91338 -14.60323,13.27559 -10.62041,9.29292 -17.25828,15.93071 -21.24095,19.91338 -10.62047,9.29292 -13.27558,11.94803 -15.93072,14.60315 -3.98268,3.98268 h -2.65512 v 2.65512 l -10.62046,9.29292 -17.25828,15.93071 -10.62047,9.2929 -15.93071,14.60316 -21.24095,19.91339 -14.60315,13.27558 -10.62047,9.29292 -34.51655,31.86143 -15.9307,14.60315 -10.62048,9.29291 -51.7748,47.79213 -10.62048,9.29292 -19.91338,18.58582 -31.86142,29.2063 -10.62048,9.29291 -34.51653,31.86143 -39.82678,35.8441 -22.5685,21.24095 -14.60315,13.27558 -10.62048,9.29292 -3.98267,3.98268 h -2.65513 v 2.65512 l -10.62047,9.29291 -21.24095,19.91339 -14.60315,13.27558 -10.62047,9.29292 -34.51654,31.86143 -15.9307,14.60314 -10.62048,9.29292 -34.51654,31.86142 -15.93071,14.60315 -10.62047,9.29291 -17.25828,15.93072 -3.98267,3.98267 h -2.65513 v 2.65511 l -10.62046,9.29292 -18.58584,17.25828 -14.603149,11.94802 -2.655111,6.6378 -1.327566,1044.78921 -2.65511,2.655 H 52.489373 l -2.655122,-5.3102 V 882.21385 l 2.655122,-9.29291 25.223625,-25.22362 10.620462,-9.29292 34.51655,-31.86142 15.9307,-14.60315 10.62048,-9.29292 19.91339,-18.58582 17.25826,-15.93071 14.60315,-13.2756 10.62048,-9.2929 19.91339,-18.58584 17.25826,-15.93071 26.5512,-23.89606 17.25826,-15.93072 19.91339,-18.58582 26.55118,-23.89606 15.93071,-14.60315 17.25827,-15.93072 14.60315,-13.27559 10.62048,-9.29291 21.24094,-19.91339 15.93071,-14.60315 13.2756,-11.94804 31.86141,-29.2063 17.25827,-15.93071 10.62048,-9.29291 5.31024,-2.65512 v -2.65512 l 10.62046,-9.29291 15.93072,-14.60315 19.91338,-18.58583 13.2756,-11.94804 10.62047,-9.2929 21.24095,-19.9134 15.93071,-14.60315 26.55118,-23.89606 15.9307,-14.60315 17.25828,-15.93072 14.60315,-13.27558 10.62047,-9.29292 19.9134,-18.58583 17.25826,-15.9307 10.62047,-9.29292 13.2756,-11.94803 17.25826,-15.93071 19.91339,-18.58583 13.2756,-11.94804 10.62051,-9.29291 19.91338,-18.58582 17.25825,-15.93072 15.93068,-14.60314 10.62053,-9.29292 19.91339,-18.58583 31.86136,-29.206302 z m -1.32757,995.669448 -23.89608,5.3102 -21.24095,9.2929 -17.25825,11.948 -15.93079,15.9308 -10.62042,14.6031 -10.62053,17.2583 -11.94799,25.2236 -10.62042,31.8615 -9.29296,39.8267 -5.31023,34.5165 -1.32757,15.9308 v 53.1023 l 3.98269,38.4992 5.31024,31.8615 7.9654,35.8441 11.94798,39.8267 11.94799,31.8614 13.27566,30.5339 11.94799,25.2237 17.25825,30.5338 14.60323,22.5685 13.27555,18.5858 13.27555,17.2584 15.93079,18.5858 14.60312,15.9307 5.31027,-2.6552 14.60314,-15.9306 11.94798,-14.6033 13.2756,-18.5858 14.6031,-23.8961 18.5859,-35.844 17.2582,-41.1544 17.2583,-50.4472 14.6032,-55.7575 9.2928,-50.4472 3.9827,-35.8442 v -63.7228 l -3.9827,-37.1717 -6.6377,-34.5165 -7.9654,-29.2063 -9.2929,-25.2235 -13.2756,-27.8788 -13.2755,-19.9135 -14.6033,-17.2582 -13.2755,-11.9481 -17.2583,-10.6204 -17.25818,-6.6378 -13.27569,-2.6551 z"
     id="path1"
     style="stroke:url(#linearGradient2);stroke-width:99.6685;stroke-dasharray:none" />
  <path
     d="M 978.82592,1278.2643"
     id="path2" />
</svg>
